<?xml version="1.0" standalone="no"?>
<svg version="1.0" xmlns="http://www.w3.org/2000/svg"
 width="1200.000000pt" height="630.000000pt" viewBox="0 0 1200.000000 630.000000"
 preserveAspectRatio="xMidYMid meet">

<g transform="translate(0.000000,630.000000) scale(0.100000,-0.100000)"
fill="#570DF8" stroke="none">
<path d="M5795 6224 c-16 -2 -77 -9 -135 -15 -371 -38 -711 -137 -1055 -308
-193 -96 -319 -174 -482 -296 -395 -295 -715 -675 -932 -1104 -560 -1107 -422
-2428 356 -3396 367 -458 891 -824 1437 -1005 117 -38 182 -38 262 3 193 99
229 354 69 495 -41 36 -68 49 -250 118 -213 81 -454 221 -655 380 -47 37 -142
124 -211 193 -382 382 -631 878 -716 1431 -25 162 -25 557 0 725 75 502 295
965 640 1344 219 241 465 425 762 571 226 111 392 168 625 214 394 78 829 58
1210 -56 670 -199 1240 -679 1558 -1314 94 -188 139 -312 190 -519 58 -234 77
-417 69 -679 -11 -369 -87 -692 -242 -1021 -96 -202 -272 -463 -421 -624 -208
-224 -630 -495 -865 -556 -73 -19 -186 -21 -256 -4 -68 17 -155 71 -208 132
-85 95 -166 290 -209 501 -22 105 -48 385 -44 480 l3 79 106 18 c259 44 478
176 632 384 72 98 114 180 158 310 l34 100 0 565 0 565 -1225 0 -1225 0 0
-565 0 -565 32 -96 c122 -375 408 -630 776 -695 l94 -17 7 -170 c38 -937 384
-1511 980 -1626 207 -40 404 -22 627 57 326 116 791 428 1028 689 657 725 942
1672 790 2628 -129 810 -566 1531 -1232 2030 -167 125 -291 201 -492 300 -330
163 -626 252 -1000 301 -112 14 -523 27 -590 18z"/>
<path d="M5272 4978 c-23 -11 -52 -34 -65 -52 -22 -31 -22 -36 -25 -413 l-3
-383 221 0 220 0 0 378 0 377 -25 37 c-38 55 -95 78 -196 78 -64 -1 -94 -6
-127 -22z"/>
<path d="M6472 4979 c-24 -12 -54 -38 -68 -58 l-24 -36 0 -377 0 -378 220 0
221 0 -3 383 c-3 377 -3 382 -25 413 -36 50 -99 74 -195 74 -65 0 -93 -5 -126
-21z"/>
</g>
</svg>
